#!OML:ASF F:\VICON\USERDATA\Patient Classification 1\PLAYGROUND\JustinFriday\JustinFriday.ASF
:FULLY-SPECIFIED
:DEGREES
4813
root 18.8815 17.961 52.9893 11.093 -221.773 9.53565
lowerback 1.08103 -3.47004 0.447751
upperback 13.8262 -3.55434 0.377562
thorax 14.5051 -1.18622 -0.103484
lowerneck -13.0019 0.369044 -1.37424
upperneck 15.3692 0.240812 3.91606
head 6.82661 0.432524 1.5197
rclavicle -2.22639e-014 3.57812e-014
rhumerus -28.2903 -33.6935 -70.147
rradius 22.4561
rwrist -7.54255
rhand -18.2226 333.644
rfingers 7.12502
rthumb 8.05547 -56.1821
lclavicle -2.22639e-014 3.57812e-014
lhumerus -27.7052 27.3005 75.3133
lradius 17.3149
lwrist -17.512
lhand -3.85465 -4.01011
lfingers 7.12502
lthumb 21.8935 24.7712
rfemur -25.4083 -0.199563 17.7682
rtibia 24.7844
rfoot 30.6673 -11.7131
rtoes 65.2623
lfemur 9.89896 4.39488 -7.36266
ltibia 9.4854
lfoot -20.7803 33.9473
ltoes 3.21987
4814
root 18.9995 17.9703 52.9834 11.3343 -221.926 9.89782
lowerback 0.998278 -3.47098 0.768926
upperback 13.8985 -3.58294 0.491335
thorax 14.6328 -1.16442 -0.16186
lowerneck -12.7694 0.456277 -1.47032
upperneck 14.9619 0.403032 3.76515
head 6.65053 0.482731 1.49567
rclavicle 9.14409e-014 -5.64548e-014
rhumerus -27.53 -33.7675 -70.6524
rradius 22.0495
rwrist -6.8913
rhand -17.5183 334.105
rfingers 7.12502
rthumb 8.73519 -55.6945
lclavicle 9.14409e-014 -5.64548e-014
lhumerus -26.8258 24.0177 76.6156
lradius 18.3149
lwrist -17.123
lhand -2.74764 -4.21878
lfingers 7.12502
lthumb 22.9561 24.4344
rfemur -25.1621 -0.488888 18.436
rtibia 24.6835
rfoot 30.7694 -11.5368
rtoes 65.4813
lfemur 10.077 3.99604 -6.94396
ltibia 9.75084
lfoot -21.6621 34.2813
ltoes 1.94679
4815
root 19.1204 17.9811 52.9783 11.7478 -221.998 10.2288
lowerback 0.765106 -3.50689 1.05883
upperback 13.9111 -3.67274 0.567825
thorax 14.7816 -1.178 -0.258642
lowerneck -12.7397 0.678366 -1.33205
upperneck 14.6894 0.715284 3.52611
head 6.5508 0.61491 1.4214
rclavicle 1.03368e-014 -4.77083e-015
rhumerus -26.6967 -33.6565 -71.318
rradius 21.6253
rwrist -6.2229
rhand -17.1015 334.827
rfingers 7.12502
rthumb 9.13737 -54.9547
lclavicle 1.03368e-014 -4.77083e-015
lhumerus -26.1237 21.497 77.2741
lradius 19.609
lwrist -18.3874
lhand -0.123909 -3.84834
lfingers 7.12502
lthumb 25.4717 24.4694
rfemur -25.2077 -0.453835 19
rtibia 24.9179
rfoot 30.8084 -11.8046
rtoes 65.6559
lfemur 10.0704 3.57024 -6.54846
ltibia 9.85371
lfoot -21.5209 34.9501
ltoes 1.60888
4816
root 19.2546 17.9655 52.985 11.2866 -222.577 10.5721
lowerback 1.35809 -3.63965 1.1186
upperback 14.2065 -3.76601 0.365106
thorax 14.7512 -1.17617 -0.497244
lowerneck -12.605 1.16016 -1.15974
upperneck 14.3847 1.35908 3.39409
head 6.41544 0.918408 1.40434
rclavicle 6.36111e-014 -3.89618e-014
rhumerus -25.6063 -32.8467 -72.7535
rradius 21.2188
rwrist -5.31374
rhand -17.1757 335.174
rfingers 7.12502
rthumb 9.06576 -54.6109
lclavicle 6.36111e-014 -3.89618e-014
lhumerus -25.743 19.1865 77.5315
lradius 20.9218
lwrist -17.0903
lhand 0.423141 -4.5259
lfingers 7.12502
lthumb 25.9956 23.716
rfemur -24.2543 0.109543 19.564
rtibia 25.1071
rfoot 30.7173 -11.6887
rtoes 65.7854
lfemur 10.9806 3.40172 -6.07897
ltibia 10.433
lfoot -22.1664 35.2776
ltoes 2.85869
4817
root 19.3739 17.972 52.9766 11.5985 -222.46 10.4748
lowerback 0.97764 -3.60383 1.05123
upperback 14.0706 -3.76194 0.435076
thorax 14.835 -1.20017 -0.401854
lowerneck -12.4667 1.32378 -0.793499
upperneck 14.1162 1.55039 3.15203
head 6.30688 1.00637 1.27925
rclavicle -2.22639e-014 1.03368e-014
rhumerus -25.1592 -33.064 -73.2029
rradius 20.9166
rwrist -4.09565
rhand -17.3147 335.307
rfingers 7.12502
rthumb 8.93166 -54.4836
lclavicle -2.22639e-014 1.03368e-014
lhumerus -25.4195 16.377 78.3311
lradius 22.2904
lwrist -14.9983
lhand -0.138733 -5.11156
lfingers 7.12502
lthumb 25.4575 23.2082
rfemur -24.3859 -0.15236 19.8013
rtibia 25.2123
rfoot 30.8613 -11.4889
rtoes 65.9332
lfemur 10.3249 3.25945 -5.93898
ltibia 11.2504
lfoot -22.7919 35.1435
ltoes 4.5538
4818
root 19.4991 17.9711 52.9714 11.6498 -222.478 10.6143
lowerback 0.897078 -3.92533 1.09458
upperback 14.1079 -4.20501 0.362205
thorax 14.9199 -1.40147 -0.563005
lowerneck -12.2116 1.86522 -0.685909
upperneck 13.7069 2.28439 3.04098
head 6.11988 1.35143 1.28197
rclavicle 1.90833e-014 -3.33958e-014
rhumerus -23.9711 -31.9441 -74.4556
rradius 20.3595
rwrist -3.26268
rhand -17.5954 335.673
rfingers 7.12502
rthumb 8.66083 -54.1294
lclavicle 1.90833e-014 -3.33958e-014
lhumerus -25.12 14.3193 78.594
lradius 23.4767
lwrist -12.3006
lhand -1.12439 -5.60773
lfingers 7.12502
lthumb 24.513 22.8434
rfemur -24.1091 -0.223244 20.2529
rtibia 25.3907
rfoot 30.8578 -11.584
rtoes 66.0426
lfemur 10.1199 3.46042 -5.51091
ltibia 12.1531
lfoot -22.8447 35.0316
ltoes 9.1251
4819
root 19.6269 17.9953 52.9692 11.9814 -222.45 11.0609
lowerback 0.787169 -4.08278 1.35178
upperback 14.1251 -4.44927 0.376489
thorax 14.9882 -1.48787 -0.723686
lowerneck -12.124 2.25868 -0.496259
upperneck 13.4756 2.79066 3.00294
head 6.02475 1.60037 1.27769
rclavicle -3.33958e-014 3.10104e-014
rhumerus -22.9314 -31.1676 -75.5666
rradius 19.8037
rwrist -2.1308
rhand -17.5122 336.279
rfingers 7.12502
rthumb 8.74107 -53.5202
lclavicle -3.33958e-014 3.10104e-014
lhumerus -24.8169 13.6065 78.1757
lradius 25.0567
lwrist -13.2586
lhand 0.550029 -5.80561
lfingers 7.12502
lthumb 26.1171 22.4184
rfemur -23.8039 0.153056 20.8232
rtibia 25.4975
rfoot 30.1056 -13.145
rtoes 65.9447
lfemur 9.69624 3.22066 -4.9612
ltibia 13.2881
lfoot -23.7948 34.9306
ltoes 9.47715
4820
root 19.7562 18.0278 52.9641 12.2209 -222.436 11.408
lowerback 0.662722 -4.15248 1.55853
upperback 14.1607 -4.56157 0.347085
thorax 15.0899 -1.5107 -0.890927
lowerneck -12.1957 2.60855 -0.160519
upperneck 13.383 3.21125 2.95872
head 6.00634 1.81708 1.24469
rclavicle -3.73715e-014 2.70347e-014
rhumerus -22.0261 -31.0146 -76.5428
rradius 19.28
rwrist -0.442538
rhand -17.1403 336.668
rfingers 7.12502
rthumb 9.09993 -53.1153
lclavicle -3.73715e-014 2.70347e-014
lhumerus -24.4035 11.9993 78.0293
lradius 26.6739
lwrist -11.9687
lhand 0.647424 -5.90377
lfingers 7.12502
lthumb 26.2103 22.3064
rfemur -23.3947 1.13302 21.1164
rtibia 25.6274
rfoot 29.4064 -15.7908
rtoes 65.8128
lfemur 9.22326 4.28237 -4.14822
ltibia 14.5223
lfoot -23.254 33.9979
ltoes 13.7418
4821
root 19.8827 18.0529 52.9553 12.4627 -222.421 11.7591
lowerback 0.503014 -4.1753 1.7521
upperback 14.3132 -4.57793 0.191366
thorax 15.353 -1.46586 -1.18345
lowerneck -12.8086 3.04395 0.953617
upperneck 13.4427 3.63237 2.62971
head 6.15173 2.05313 1.00915
rclavicle -2.3059e-014 2.70347e-014
rhumerus -20.8903 -31.4286 -77.7941
rradius 18.7186
rwrist 1.18727
rhand -16.7844 337.048
rfingers 7.12502
rthumb 9.44339 -52.7199
lclavicle -2.3059e-014 2.70347e-014
lhumerus -23.6838 10.5072 77.5513
lradius 28.2692
lwrist -10.9048
lhand 0.336671 -6.09526
lfingers 7.12502
lthumb 25.9128 22.1588
rfemur -23.0439 1.53691 21.631
rtibia 25.716
rfoot 29.3843 -16.6581
rtoes 65.8885
lfemur 8.65969 4.86193 -3.52505
ltibia 15.9459
lfoot -23.4031 33.3792
ltoes 14.6732
4822
root 20.0038 18.0747 52.9486 12.6651 -222.411 12.0667
lowerback 0.357287 -4.00157 2.07881
upperback 14.1606 -4.42885 0.516079
thorax 15.2609 -1.39241 -0.990715
lowerneck -12.2253 3.074 0.309368
upperneck 13.1039 3.79346 2.70385
head 5.928 2.09905 1.13359
rclavicle 5.48646e-014 -1.51076e-014
rhumerus -20.5571 -31.8307 -77.4093
rradius 18.217
rwrist 2.75022
rhand -16.2352 337.601
rfingers 7.12502
rthumb 9.97327 -52.1423
lclavicle 5.48646e-014 -1.51076e-014
lhumerus -23.4703 9.27644 78.0071
lradius 29.8529
lwrist -10.2107
lhand -0.184368 -6.33165
lfingers 7.12502
lthumb 25.4138 21.9944
rfemur -22.7423 1.16026 22.2828
rtibia 25.748
rfoot 28.9494 -16.678
rtoes 65.9233
lfemur 7.91379 5.26175 -3.01815
ltibia 17.7168
lfoot -24.0631 32.6265
ltoes 20.1529
